@startuml
    remove .*\.(Instance|Par|Parameterizer|Factory)$
    set namespaceSeparator none
    hide empty fields
    hide empty methods

    class "<size:14>PolygonVisualization.Instance\n<size:10>elki.visualization.visualizers.scatterplot" as elki.visualization.visualizers.scatterplot.PolygonVisualization.Instance [[PolygonVisualization.Instance.html]] {
        {static} +POLYS: String
        #rep: Relation<PolygonsObject>
        +Instance(VisualizerContext, VisualizationTask, VisualizationPlot, double, double, Projection)
        +fullRedraw(): void
    }

    abstract class "<size:14>AbstractScatterplotVisualization\n<size:10>elki.visualization.visualizers.scatterplot" as elki.visualization.visualizers.scatterplot.AbstractScatterplotVisualization [[AbstractScatterplotVisualization.html]]
    interface "<size:14>DataStoreListener\n<size:10>elki.database.datastore" as elki.database.datastore.DataStoreListener [[../../../database/datastore/DataStoreListener.html]] {
        {abstract} +contentChanged(DataStoreEvent): void
    }
    class "<size:14>PolygonVisualization\n<size:10>elki.visualization.visualizers.scatterplot" as elki.visualization.visualizers.scatterplot.PolygonVisualization [[PolygonVisualization.html]]

    elki.visualization.visualizers.scatterplot.AbstractScatterplotVisualization <|-- elki.visualization.visualizers.scatterplot.PolygonVisualization.Instance
    elki.database.datastore.DataStoreListener <|.. elki.visualization.visualizers.scatterplot.PolygonVisualization.Instance
    elki.visualization.visualizers.scatterplot.PolygonVisualization +-- elki.visualization.visualizers.scatterplot.PolygonVisualization.Instance

    center footer UMLDoclet 2.0.19, PlantUML 1.2022.8
@enduml
