@startuml
    remove .*\.(Instance|Par|Parameterizer|Factory)$
    set namespaceSeparator none
    hide empty fields
    hide empty methods

    class "<size:14>BUILD\n<size:10>elki.clustering.kmedoids.initialization" as elki.clustering.kmedoids.initialization.BUILD<O> [[BUILD.html]] {
        {static} -LOG: Logging
        +chooseInitialMeans(Relation<? extends NumberVector>, int, NumberVectorDistance<?>): double[]
        +chooseInitialMedoids(int, DBIDs, DistanceQuery<? super O>): DBIDs
    }

    interface "<size:14>KMeansInitialization\n<size:10>elki.clustering.kmeans.initialization" as elki.clustering.kmeans.initialization.KMeansInitialization [[../../kmeans/initialization/KMeansInitialization.html]] {
        {abstract} +chooseInitialMeans(Relation<? extends NumberVector>, int, NumberVectorDistance<?>): double[]
    }
    interface "<size:14>KMedoidsInitialization\n<size:10>elki.clustering.kmedoids.initialization" as elki.clustering.kmedoids.initialization.KMedoidsInitialization<O> [[KMedoidsInitialization.html]] {
        {abstract} +chooseInitialMedoids(int, DBIDs, DistanceQuery<? super O>): DBIDs
    }
    class "<size:14>BUILD.Par\n<size:10>elki.clustering.kmedoids.initialization" as elki.clustering.kmedoids.initialization.BUILD.Par<V> [[BUILD.Par.html]]

    elki.clustering.kmeans.initialization.KMeansInitialization <|.. elki.clustering.kmedoids.initialization.BUILD
    elki.clustering.kmedoids.initialization.KMedoidsInitialization <|.. elki.clustering.kmedoids.initialization.BUILD
    elki.clustering.kmedoids.initialization.BUILD +-- elki.clustering.kmedoids.initialization.BUILD.Par

    center footer UMLDoclet 2.0.19, PlantUML 1.2022.8
@enduml
