@startuml
    remove .*\.(Instance|Par|Parameterizer|Factory)$
    set namespaceSeparator none
    hide empty fields
    hide empty methods

    interface "<size:14>IntegerDBIDMIter\n<size:10>elki.database.ids.integer" as elki.database.ids.integer.IntegerDBIDMIter [[IntegerDBIDMIter.html]]

    interface "<size:14>DBIDMIter\n<size:10>elki.database.ids" as elki.database.ids.DBIDMIter [[../DBIDMIter.html]] {
        {abstract} +remove(): void
    }
    interface "<size:14>IntegerDBIDIter\n<size:10>elki.database.ids.integer" as elki.database.ids.integer.IntegerDBIDIter [[IntegerDBIDIter.html]]

    elki.database.ids.DBIDMIter <|-- elki.database.ids.integer.IntegerDBIDMIter
    elki.database.ids.integer.IntegerDBIDIter <|-- elki.database.ids.integer.IntegerDBIDMIter

    center footer UMLDoclet 2.0.19, PlantUML 1.2022.8
@enduml
