@startuml
    remove .*\.(Instance|Par|Parameterizer|Factory)$
    set namespaceSeparator none
    hide empty fields
    hide empty methods

    class "<size:14>IntegerDBIDKNNSubList\n<size:10>elki.database.ids.integer" as elki.database.ids.integer.IntegerDBIDKNNSubList [[IntegerDBIDKNNSubList.html]] {
        -k: int
        -size: int
        -inner: DoubleIntegerDBIDKNNList
        +IntegerDBIDKNNSubList(DoubleIntegerDBIDKNNList, int)
        +getK(): int
        +assignVar(int, DBIDVar): DBIDVar
        +doubleValue(int): double
        +getKNNDistance(): double
        +iter(): Itr
        +contains(DBIDRef): boolean
        +size(): int
        +subList(int): KNNList
        +map(DoubleUnaryOperator): KNNList
    }

    interface "<size:14>KNNList\n<size:10>elki.database.ids" as elki.database.ids.KNNList [[../KNNList.html]] {
        {abstract} +getK(): int
        {abstract} +getKNNDistance(): double
        {abstract} +subList(int): KNNList
        {abstract} +map(DoubleUnaryOperator): KNNList
    }
    interface "<size:14>DoubleIntegerDBIDList\n<size:10>elki.database.ids.integer" as elki.database.ids.integer.DoubleIntegerDBIDList [[DoubleIntegerDBIDList.html]] {
        {abstract} +iter(): DoubleIntegerDBIDListIter
    }
    class "<size:14>IntegerDBIDKNNSubList.Itr\n<size:10>elki.database.ids.integer" as elki.database.ids.integer.IntegerDBIDKNNSubList.Itr [[IntegerDBIDKNNSubList.Itr.html]]

    elki.database.ids.KNNList <|.. elki.database.ids.integer.IntegerDBIDKNNSubList
    elki.database.ids.integer.DoubleIntegerDBIDList <|.. elki.database.ids.integer.IntegerDBIDKNNSubList
    elki.database.ids.integer.IntegerDBIDKNNSubList +-- elki.database.ids.integer.IntegerDBIDKNNSubList.Itr

    center footer UMLDoclet 2.0.19, PlantUML 1.2022.8
@enduml
