@startuml
    remove .*\.(Instance|Par|Parameterizer|Factory)$
    namespace elki.utilities.optionhandling.parameterization {

        class UnParameterization [[UnParameterization.html]] {
            ~errors: List<ParameterException>
            +hasUnusedParameters(): boolean
            +getErrors(): Collection<ParameterException>
            +grab(Parameter<?>): boolean
            +reportError(ParameterException): void
            +setValueForOption(Parameter<?>): boolean
        }

        class TrackParameters [[TrackParameters.html]] {
            ~parents: Map<Object, Object>
            ~children: Map<Object, List<Object>>
            ~owner: Object
            +TrackParameters(Parameterization)
            +TrackParameters(Parameterization, Object)
            -TrackParameters(Parameterization, Object, List<TrackedParameter>, Map<Object, Object>, Map<Object, List<Object>>)
            +getErrors(): Collection<ParameterException>
            +grab(Parameter<?>): boolean
            +hasUnusedParameters(): boolean
            +reportError(ParameterException): void
            +setValueForOption(Parameter<?>): boolean
            +descend(Object): Parameterization
            -registerChild(Object): void
            +getParent(Object): Object
        }

        abstract class AbstractParameterization [[AbstractParameterization.html]] {
            {static} -LOG: Logging
            ~errors: List<ParameterException>
            +getErrors(): Collection<ParameterException>
            +reportError(ParameterException): void
            +logAndClearReportedErrors(): void
            +clearErrors(): void
            +failOnErrors(): void
        }

        class MergedParameterization [[MergedParameterization.html]] {
            +MergedParameterization(Parameterization)
            -MergedParameterization(Parameterization, ListParameterization, List<ParameterPair>)
            +rewind(): void
            +setValueForOption(Parameter<?>): boolean
            +descend(Object): Parameterization
            +getErrors(): Collection<ParameterException>
            +reportError(ParameterException): void
            +hasUnusedParameters(): boolean
        }

        class EmptyParameterization [[EmptyParameterization.html]] {
            +hasUnusedParameters(): boolean
            +setValueForOption(Parameter<?>): boolean
        }

        class TrackedParameter [[TrackedParameter.html]] {
            -owner: Object
            -parameter: Parameter<?>
            +TrackedParameter(Object, Parameter<?>)
            +getOwner(): Object
            +getParameter(): Parameter<?>
        }

        class ListParameterization [[ListParameterization.html]] {
            +ListParameterization()
            +ListParameterization(Collection<ParameterPair>)
            +addFlag(OptionID): ListParameterization
            +addFlag(String): ListParameterization
            +addParameter(OptionID, Object): ListParameterization
            #addParameter(ParameterPair): ListParameterization
            +addParameter(String, Object): ListParameterization
            +setValueForOption(Parameter<?>): boolean
            +hasUnusedParameters(): boolean
            +descend(Object): ListParameterization
            +serialize(): ArrayList<String>
        }

        class elki.utilities.optionhandling.parameterization.ListParameterization.ParameterPair [[ListParameterization.ParameterPair.html]] {
            +option: Object
            +value: Object
            +ParameterPair(Object, Object)
        }

        class ChainedParameterization [[ChainedParameterization.html]] {
            +ChainedParameterization(Parameterization...)
            +appendParameterization(Parameterization): void
            +setValueForOption(Parameter<?>): boolean
            +hasUnusedParameters(): boolean
            +errorsTo(Parameterization): void
            +reportError(ParameterException): void
            +descend(Object): Parameterization
        }

        interface Parameterization [[Parameterization.html]] {
            +grab(Parameter<?>): boolean
            {abstract} +setValueForOption(Parameter<?>): boolean
            {abstract} +getErrors(): Collection<ParameterException>
            {abstract} +reportError(ParameterException): void
            {abstract} +hasUnusedParameters(): boolean
            +descend(Object): Parameterization
            +hasErrors(): boolean
            +tryInstantiate(Class<C>): C
        }

        class SerializedParameterization [[SerializedParameterization.html]] {
            {static} +OPTION_PREFIX: String
            ~parameters: LinkedList<String>
            +SerializedParameterization()
            +SerializedParameterization(String...)
            +SerializedParameterization(List<String>)
            +getRemainingParameters(): List<String>
            +hasUnusedParameters(): boolean
            +logUnusedParameters(): void
            +setValueForOption(Parameter<?>): boolean
        }

        Parameterization <|.. UnParameterization
        Parameterization <|.. TrackParameters
        TrackParameters --> Parameterization: inner
        TrackParameters --> "*" TrackedParameter: options\nallParameters
        Parameterization <|.. AbstractParameterization
        Parameterization <|.. MergedParameterization
        MergedParameterization --> Parameterization: inner
        MergedParameterization --> ListParameterization: current
        MergedParameterization --> "*" elki.utilities.optionhandling.parameterization.ListParameterization.ParameterPair: used
        AbstractParameterization <|-- EmptyParameterization
        AbstractParameterization <|-- ListParameterization
        ListParameterization --> "*" elki.utilities.optionhandling.parameterization.ListParameterization.ParameterPair: parameters\nremainingParameters
        ListParameterization +-- elki.utilities.optionhandling.parameterization.ListParameterization.ParameterPair
        AbstractParameterization <|-- ChainedParameterization
        ChainedParameterization --> "*" Parameterization: chain
        ChainedParameterization --> Parameterization: errorTarget
        AbstractParameterization <|-- SerializedParameterization
    }

    center footer UMLDoclet 2.0.19, PlantUML 1.2022.8
@enduml
