@startuml
    remove .*\.(Instance|Par|Parameterizer|Factory)$
    set namespaceSeparator none
    hide empty fields
    hide empty methods

    class "<size:14>InstanceMeanVarianceNormalization\n<size:10>elki.datasource.filter.normalization.instancewise" as elki.datasource.filter.normalization.instancewise.InstanceMeanVarianceNormalization<V extends NumberVector> [[InstanceMeanVarianceNormalization.html]] {
        -multiplicity: int
        #filterSingleObject(V extends NumberVector): V extends NumberVector
        #univariateStandardization(double[]): double[]
        #multivariateStandardization(double[]): double[]
        #initializeOutputType(SimpleTypeInformation<V extends NumberVector>): void
        #convertedType(SimpleTypeInformation<V extends NumberVector>): SimpleTypeInformation<? super NumberVector>
        #getInputTypeRestriction(): SimpleTypeInformation<? super NumberVector>
    }

    abstract class "<size:14>AbstractVectorStreamConversionFilter\n<size:10>elki.datasource.filter" as elki.datasource.filter.AbstractVectorStreamConversionFilter<V extends NumberVector, V extends NumberVector> [[../../AbstractVectorStreamConversionFilter.html]]
    interface "<size:14>Normalization\n<size:10>elki.datasource.filter.normalization" as elki.datasource.filter.normalization.Normalization<V extends NumberVector> [[../Normalization.html]]
    class "<size:14>InstanceMeanVarianceNormalization.Par\n<size:10>elki.datasource.filter.normalization.instancewise" as elki.datasource.filter.normalization.instancewise.InstanceMeanVarianceNormalization.Par<V extends NumberVector> [[InstanceMeanVarianceNormalization.Par.html]]

    elki.datasource.filter.AbstractVectorStreamConversionFilter <|-- elki.datasource.filter.normalization.instancewise.InstanceMeanVarianceNormalization
    elki.datasource.filter.normalization.Normalization <|.. elki.datasource.filter.normalization.instancewise.InstanceMeanVarianceNormalization
    elki.datasource.filter.normalization.instancewise.InstanceMeanVarianceNormalization +-- elki.datasource.filter.normalization.instancewise.InstanceMeanVarianceNormalization.Par

    center footer UMLDoclet 2.0.19, PlantUML 1.2022.8
@enduml
